<svg id="Layer_1" data-name="Layer 1" xmlns="http://www.w3.org/2000/svg" viewBox="0 0 222.42 121.67"><defs><style>.cls-1{fill:#19305a;}</style></defs><title>govCMS stack outline (navy blue)</title><path class="cls-1" d="M150.87,21.07V76.18H95.36A17.8,17.8,0,0,1,77.52,58.47V3.35H133A17.8,17.8,0,0,1,150.87,21.07Zm-40,11.42-9.89-3,5.15,8.91-8.54,5.8,10.23,1.55L107,56l7.6-7,7.6,7-.75-10.24,10.23-1.55-8.54-5.8,5.15-8.91-9.89,3-3.8-9.55Z" transform="translate(-3.45 -3.35)"/><path class="cls-1" d="M23,110v-6.6h17V119a21.44,21.44,0,0,1-7.2,4.23A26.2,26.2,0,0,1,23.32,125a21.42,21.42,0,0,1-10.71-2.58,16.38,16.38,0,0,1-6.86-7.37,23.81,23.81,0,0,1-2.3-10.43A22.54,22.54,0,0,1,6,93.78a17.27,17.27,0,0,1,7.5-7.29,20.25,20.25,0,0,1,9.37-1.95q7.29,0,11.39,3.06a13.81,13.81,0,0,1,5.27,8.45L31.7,97.52A8.29,8.29,0,0,0,28.59,93a9.41,9.41,0,0,0-5.7-1.67,10.71,10.71,0,0,0-8.24,3.28q-3.06,3.28-3.06,9.75,0,7,3.1,10.45a10.34,10.34,0,0,0,8.12,3.49,13.6,13.6,0,0,0,5-1,17.06,17.06,0,0,0,4.29-2.36v-5Z" transform="translate(-3.45 -3.35)"/><path class="cls-1" d="M45.56,109.78a15.35,15.35,0,0,1,1.84-7.24,12.64,12.64,0,0,1,5.22-5.34,15.49,15.49,0,0,1,7.54-1.84,14.16,14.16,0,0,1,10.55,4.18,14.44,14.44,0,0,1,4.11,10.56,14.61,14.61,0,0,1-4.15,10.67A14,14,0,0,1,60.22,125a16.47,16.47,0,0,1-7.44-1.76,12.09,12.09,0,0,1-5.38-5.17A17.22,17.22,0,0,1,45.56,109.78Zm7.69.4q0,4.22,2,6.46a6.55,6.55,0,0,0,9.87,0q2-2.24,2-6.52a9.35,9.35,0,0,0-2-6.41,6.55,6.55,0,0,0-9.87,0Q53.25,106,53.25,110.18Z" transform="translate(-3.45 -3.35)"/><path class="cls-1" d="M88.5,124.36,77.07,96H85l5.34,14.47,1.55,4.83q.61-1.84.77-2.43.37-1.2.8-2.4L98.81,96h7.72L95.26,124.36Z" transform="translate(-3.45 -3.35)"/><path class="cls-1" d="M139.35,110.63l5.18,1.31a17.44,17.44,0,0,1-5.86,9.73A16.15,16.15,0,0,1,128.32,125Q122,125,118,122.45a16.09,16.09,0,0,1-6-7.46,26.63,26.63,0,0,1-2.07-10.5,23.07,23.07,0,0,1,2.34-10.67,16,16,0,0,1,6.65-6.92,19.43,19.43,0,0,1,9.49-2.36,16,16,0,0,1,9.88,3,15.54,15.54,0,0,1,5.58,8.41l-5.1,1.2a12.1,12.1,0,0,0-4-6.22A10.53,10.53,0,0,0,128.29,89a12.66,12.66,0,0,0-7.54,2.16,11.42,11.42,0,0,0-4.26,5.81,23.39,23.39,0,0,0-1.23,7.52,23.89,23.89,0,0,0,1.46,8.72,10.84,10.84,0,0,0,4.53,5.57,12.69,12.69,0,0,0,6.65,1.84,11.14,11.14,0,0,0,7.37-2.51A12.85,12.85,0,0,0,139.35,110.63Z" transform="translate(-3.45 -3.35)"/><path class="cls-1" d="M150.75,124.36V85.21h7.8l9.27,27.72q1.28,3.87,1.87,5.79.67-2.14,2.08-6.28l9.37-27.24h7v39.15h-5V91.59l-11.38,32.77h-4.67L155.75,91v33.33Z" transform="translate(-3.45 -3.35)"/><path class="cls-1" d="M194.71,111.78l4.89-.43a10.79,10.79,0,0,0,1.62,4.82,8.82,8.82,0,0,0,3.94,3,14.91,14.91,0,0,0,6,1.16,14.39,14.39,0,0,0,5.23-.88,7.26,7.26,0,0,0,3.38-2.42,5.6,5.6,0,0,0,1.11-3.35,5.1,5.1,0,0,0-1.07-3.22,7.92,7.92,0,0,0-3.52-2.31,69.16,69.16,0,0,0-7-1.91,35.6,35.6,0,0,1-7.56-2.44,10.6,10.6,0,0,1-4.18-3.65,8.93,8.93,0,0,1-1.37-4.87,10,10,0,0,1,1.68-5.54,10.41,10.41,0,0,1,4.91-3.91A18.64,18.64,0,0,1,210,84.54a19.62,19.62,0,0,1,7.68,1.4,11.07,11.07,0,0,1,5.11,4.13,11.86,11.86,0,0,1,1.92,6.17l-5,.37A8,8,0,0,0,217,91q-2.31-1.9-6.82-1.9-4.7,0-6.85,1.72A5.16,5.16,0,0,0,201.2,95a4.45,4.45,0,0,0,1.52,3.47q1.5,1.36,7.81,2.79a51.69,51.69,0,0,1,8.67,2.5,11.88,11.88,0,0,1,5,4,9.73,9.73,0,0,1,1.63,5.57,10.65,10.65,0,0,1-1.79,5.89,11.79,11.79,0,0,1-5.14,4.3A17.92,17.92,0,0,1,211.4,125a22.53,22.53,0,0,1-8.91-1.55,12.47,12.47,0,0,1-5.63-4.66A13.2,13.2,0,0,1,194.71,111.78Z" transform="translate(-3.45 -3.35)"/></svg>