<svg width="402" height="402" xmlns="http://www.w3.org/2000/svg">
 <defs>
  <style>.cls-1{fill:#19305a;}</style>
 </defs>
 <title>govCMS stack outline (navy blue)</title>
 <g>
  <title>background</title>
  <rect fill="none" id="canvas_background" height="404" width="404" y="-1" x="-1"/>
 </g>
 <g>
  <title>Layer 1</title>
  <path stroke="null" id="svg_1" d="m400.869982,98.584583l0,299.29199l-301.464315,0a96.668435,96.668435 0 0 1 -96.885667,-96.179662l0,-299.346298l301.30139,0a96.668435,96.668435 0 0 1 97.048591,96.23397zm-217.232437,62.019861l-53.71072,-16.292433l27.968676,48.388525l-46.379125,31.498703l55.557196,8.417757l-4.453265,55.665812l41.274163,-38.015676l41.274163,38.015676l-4.073108,-55.611504l55.557196,-8.417757l-46.379125,-31.498703l27.968676,-48.388525l-53.71072,16.292433l-20.637082,-51.864244l-20.256925,51.809936z" class="cls-1"/>
 </g>
</svg>